<?xml version="1.0" encoding="utf-8"?>
<!-- Generator: Adobe Illustrator 16.0.0, SVG Export Plug-In . SVG Version: 6.00 Build 0)  -->
<!DOCTYPE svg PUBLIC "-//W3C//DTD SVG 1.1//EN" "http://www.w3.org/Graphics/SVG/1.1/DTD/svg11.dtd">
<svg version="1.1" id="圖層_1" xmlns="http://www.w3.org/2000/svg" xmlns:xlink="http://www.w3.org/1999/xlink" x="0px" y="0px"
	 width="300px" height="100px" viewBox="0 0 300 100" enable-background="new 0 0 300 100" xml:space="preserve">
<path fill="#F37022" d="M251.14,24.981H143.785c4.459,7.089,7.048,15.477,7.048,24.472c0,6.402-1.308,12.5-3.671,18.039H251.14
	c11.737,0,21.255-9.516,21.255-21.256S262.877,24.981,251.14,24.981z"/>
<g>
	<path fill="#1F2B60" d="M156.828,86.863c-0.208-0.186-0.322-0.383-0.345-0.59c-0.021-0.186,0.033-0.415,0.164-0.688
		c0.514-1.301,0.748-2.962,0.705-4.983c-0.022-0.579,0.263-0.853,0.853-0.82c0.503,0.033,0.76,0.302,0.771,0.804
		c0,0.514-0.006,0.896-0.017,1.147c0.24,0.711,0.541,1.295,0.901,1.754v-4.704h-2.278c-0.568,0-0.853-0.284-0.853-0.853
		s0.284-0.853,0.853-0.853h1.95V75.7h-1.409c-0.568,0-0.853-0.284-0.853-0.853c0-0.567,0.284-0.853,0.853-0.853h1.409v-0.836
		c0-0.59,0.296-0.885,0.886-0.885s0.885,0.295,0.885,0.885v0.836h1.328c0.568,0,0.853,0.285,0.853,0.853
		c0,0.568-0.284,0.853-0.853,0.853h-1.328v1.377h1.574c0.568,0,0.853,0.284,0.853,0.853s-0.284,0.853-0.853,0.853h-1.279v1.819
		h1.083c0.557,0,0.835,0.278,0.835,0.836c0,0.568-0.278,0.853-0.835,0.853h-1.083v2.491c0.82,0.328,2.06,0.492,3.722,0.492
		c2.403,0,4.202-0.006,5.393-0.017c0.47-0.011,0.757,0.068,0.861,0.237c0.104,0.17,0.067,0.479-0.106,0.927
		c-0.187,0.48-0.569,0.721-1.148,0.721h-2.081h-2.935c-1.727,0-3.065-0.163-4.016-0.491c-1.115-0.383-2.001-1.076-2.656-2.082
		c-0.142,0.699-0.339,1.355-0.59,1.967c-0.175,0.339-0.35,0.541-0.524,0.606C157.319,87.196,157.09,87.104,156.828,86.863z
		 M170.139,84.798c-0.655,0-1.219-0.448-1.688-1.344c-0.295,0.339-0.628,0.678-1,1.017c-0.251,0.186-0.47,0.278-0.655,0.278
		c-0.208-0.011-0.404-0.132-0.591-0.361c-0.219-0.262-0.309-0.494-0.271-0.696s0.2-0.407,0.483-0.614
		c0.448-0.383,0.902-0.858,1.36-1.427c-0.382-1.354-0.649-3.076-0.803-5.163h-0.771c-0.263,0-0.394,0.131-0.394,0.394v4.081
		l0.41-0.246c0.48-0.283,0.819-0.164,1.017,0.361c0.152,0.393,0.055,0.716-0.295,0.967c-0.153,0.099-0.383,0.252-0.688,0.459
		c-0.842,0.579-1.465,0.995-1.869,1.246c-0.48,0.306-0.857,0.191-1.131-0.345c-0.252-0.502-0.143-0.885,0.327-1.147
		c0.109-0.065,0.284-0.164,0.524-0.295V75.93c0-0.316,0.099-0.573,0.296-0.771c0.196-0.196,0.453-0.295,0.771-0.295h1.688
		c0-0.186-0.011-0.459-0.032-0.819c-0.011-0.383-0.022-0.672-0.032-0.869c-0.022-0.601,0.272-0.901,0.885-0.901
		c0.59,0,0.885,0.295,0.885,0.885c0.021,0.766,0.038,1.333,0.05,1.705h1.049c0.273,0,0.354-0.104,0.246-0.312
		c-0.208-0.371-0.481-0.771-0.819-1.196c-0.197-0.208-0.164-0.388,0.098-0.541l0.05-0.017c0.272-0.153,0.552-0.186,0.836-0.099
		c0.251,0.077,0.48,0.252,0.688,0.524c0.229,0.307,0.327,0.591,0.295,0.853c-0.033,0.284-0.208,0.514-0.525,0.688l-0.18,0.099h0.524
		c0.535,0,0.804,0.268,0.804,0.804c0,0.546-0.269,0.819-0.804,0.819h-0.688h-1.475c0.076,1.038,0.196,2.071,0.36,3.098
		c0.283-0.546,0.524-1.12,0.721-1.721c0.153-0.48,0.476-0.656,0.968-0.524c0.491,0.131,0.661,0.448,0.508,0.95
		c-0.426,1.301-0.983,2.509-1.672,3.623c0.262,0.743,0.508,1.114,0.737,1.114c0.099,0,0.181-0.114,0.246-0.344
		c0.044-0.47,0.142-0.814,0.295-1.033c0.186-0.262,0.426-0.283,0.722-0.065c0.295,0.219,0.388,0.705,0.278,1.459
		c-0.142,0.667-0.35,1.131-0.623,1.394C171.002,84.678,170.63,84.798,170.139,84.798z"/>
	<path fill="#1F2B60" d="M185.433,87.552c-0.667,0-1-0.328-1-0.983v-2.508h-5.41c-0.611,0-0.918-0.312-0.918-0.935
		c0-0.612,0.307-0.918,0.918-0.918h5.41V80.34h-3.655c-0.317,0-0.574-0.1-0.771-0.296c-0.197-0.196-0.295-0.453-0.295-0.771v-5.278
		c0-0.316,0.098-0.573,0.295-0.771c0.196-0.196,0.453-0.295,0.771-0.295h4.688h4.704c0.316,0,0.573,0.099,0.771,0.295
		c0.196,0.197,0.295,0.454,0.295,0.771v5.278c0,0.317-0.099,0.574-0.295,0.771c-0.197,0.196-0.454,0.296-0.771,0.296h-3.754v1.868
		h5.59c0.611,0,0.918,0.306,0.918,0.918c0,0.623-0.307,0.935-0.918,0.935h-5.59v2.508C186.416,87.224,186.088,87.552,185.433,87.552
		z M181.597,75.848h7.655v-0.803c0-0.263-0.131-0.394-0.394-0.394h-3.442h-3.426c-0.263,0-0.394,0.131-0.394,0.394V75.848z
		 M181.99,78.618h6.868c0.263,0,0.394-0.131,0.394-0.394v-0.787h-3.836h-3.819v0.787C181.597,78.487,181.728,78.618,181.99,78.618z"
		/>
	<path fill="#1F2B60" d="M210.431,87.47c-0.766,0-1.235-0.257-1.409-0.771c-0.23-0.731,0.163-1.087,1.18-1.065
		c0.24,0,0.48,0,0.721,0c0.284,0,0.427-0.131,0.427-0.394v-2.458h-3.426v3.605c0,0.645-0.323,0.968-0.968,0.968
		s-0.967-0.323-0.967-0.968v-3.605h-3.312c-0.262,1.649-0.732,2.994-1.409,4.032c-0.219,0.284-0.433,0.447-0.64,0.491
		c-0.229,0.044-0.476-0.044-0.737-0.262c-0.535-0.427-0.563-0.968-0.082-1.623c0.503-0.842,0.847-1.868,1.032-3.082
		c0.12-0.819,0.181-1.863,0.181-3.131v-4.786c0-0.317,0.099-0.574,0.295-0.771c0.196-0.197,0.453-0.295,0.771-0.295h5.049h5.065
		c0.316,0,0.573,0.098,0.771,0.295c0.196,0.196,0.295,0.453,0.295,0.771v10.835c0,0.524-0.065,0.932-0.196,1.222
		c-0.132,0.289-0.355,0.505-0.673,0.647C211.993,87.322,211.338,87.438,210.431,87.47z M202.874,80.946h1.558h1.557V78.93h-3.065
		v0.295C202.923,79.76,202.906,80.334,202.874,80.946z M202.923,77.11h1.524h1.541v-1.901h-2.672c-0.263,0-0.394,0.131-0.394,0.393
		V77.11z M207.923,77.11h1.704h1.722v-1.509c0-0.262-0.132-0.393-0.394-0.393h-3.032V77.11z M207.923,80.946h3.426V78.93h-1.722
		h-1.704V80.946z"/>
	<path fill="#1F2B60" d="M226.381,87.601c-0.602-0.021-0.973-0.278-1.115-0.77c-0.131-0.427-0.099-0.716,0.099-0.869
		c0.164-0.142,0.486-0.202,0.968-0.181c0.054,0,0.103,0,0.146,0c0.459,0,0.781-0.114,0.968-0.344
		c0.196-0.153,0.344-0.388,0.442-0.705c0.099-0.328,0.131-0.705,0.099-1.131c-1.563,1.169-3.366,2.152-5.41,2.95
		c-0.284,0.109-0.52,0.134-0.705,0.074c-0.186-0.061-0.354-0.216-0.508-0.468c-0.207-0.338-0.257-0.611-0.147-0.819
		c0.099-0.186,0.345-0.339,0.737-0.459c1.05-0.35,2.071-0.787,3.065-1.312c1.027-0.535,1.869-1.087,2.525-1.655
		c-0.132-0.263-0.23-0.453-0.296-0.574c-1.158,0.787-2.557,1.52-4.196,2.197c-0.263,0.087-0.481,0.109-0.655,0.065
		c-0.175-0.044-0.334-0.181-0.476-0.41c-0.219-0.316-0.273-0.573-0.164-0.771c0.088-0.175,0.328-0.316,0.722-0.426
		c1.606-0.525,2.901-1.126,3.885-1.804c-0.175-0.175-0.312-0.306-0.41-0.394c-1.071,0.492-2.104,0.886-3.098,1.181
		c-0.503,0.142-0.88,0.011-1.132-0.394c-0.404-0.623-0.213-1.016,0.574-1.18c1.442-0.372,2.704-0.837,3.786-1.394h-1.54
		c-0.547,0-0.819-0.273-0.819-0.82c0-0.546,0.272-0.819,0.819-0.819h3.524h3.54c0.547,0,0.82,0.273,0.82,0.819
		c0,0.547-0.273,0.82-0.82,0.82h-1.032c0.175,0.634,0.398,1.268,0.672,1.901c0.59-0.404,1.131-0.809,1.623-1.213
		c0.426-0.383,0.868-0.377,1.328,0.017c0.546,0.47,0.508,0.934-0.115,1.393c-0.678,0.471-1.36,0.907-2.049,1.312
		c0.655,1.082,1.458,1.951,2.409,2.606c0.404,0.24,0.645,0.481,0.722,0.722c0.087,0.272-0.006,0.579-0.279,0.918
		c-0.219,0.272-0.442,0.421-0.672,0.442c-0.219,0.033-0.48-0.049-0.786-0.246c-2.132-1.519-3.645-4.136-4.541-7.852h-0.033
		c-0.371,0.316-0.825,0.634-1.36,0.95c0.962,0.842,1.65,1.842,2.065,3c0.372,1.017,0.48,2.006,0.327,2.967
		c-0.152,0.918-0.502,1.579-1.049,1.983c-0.295,0.263-0.595,0.443-0.901,0.541c-0.295,0.099-0.655,0.147-1.082,0.147
		C226.703,87.601,226.544,87.601,226.381,87.601z M222.2,77.208c-0.634,0-0.951-0.316-0.951-0.95v-1.64
		c0-0.316,0.099-0.573,0.296-0.771c0.196-0.196,0.453-0.295,0.771-0.295h4.786v-0.295c0-0.655,0.328-0.983,0.983-0.983
		c0.656,0,0.983,0.328,0.983,0.983v0.295h4.885c0.317,0,0.574,0.099,0.771,0.295c0.197,0.197,0.296,0.454,0.296,0.771v1.606
		c0,0.656-0.328,0.983-0.984,0.983c-0.666,0-1-0.327-1-0.983v-0.508c0-0.263-0.131-0.394-0.393-0.394h-4.558h-4.54
		c-0.263,0-0.394,0.131-0.394,0.394v0.541C223.151,76.892,222.834,77.208,222.2,77.208z"/>
	<path fill="#1F2B60" d="M249.362,79.602c-0.623,0-0.935-0.312-0.935-0.935v-2.475h-4.032c-0.263,0-0.394,0.131-0.394,0.393v0.787
		c0,0.568-0.284,0.853-0.853,0.853s-0.853-0.284-0.853-0.853v-1.409c0-0.317,0.099-0.574,0.296-0.771
		c0.196-0.197,0.453-0.295,0.771-0.295h5.064v-0.623h-4.295c-0.48,0-0.721-0.24-0.721-0.722c0-0.48,0.24-0.722,0.721-0.722h5.246
		h5.262c0.48,0,0.722,0.241,0.722,0.722c0,0.481-0.241,0.722-0.722,0.722h-4.344v0.623h5.196c0.316,0,0.574,0.098,0.771,0.295
		c0.196,0.196,0.295,0.453,0.295,0.771v1.377c0,0.59-0.295,0.885-0.885,0.885c-0.602,0-0.902-0.295-0.902-0.885v-0.755
		c0-0.262-0.131-0.393-0.393-0.393h-4.082v2.475C250.297,79.29,249.985,79.602,249.362,79.602z M251.165,87.52
		c-1.114,0-1.865-0.151-2.253-0.451c-0.389-0.301-0.582-0.883-0.582-1.746v-0.049h-2.705v0.032c0,0.459-0.263,0.688-0.787,0.688
		c-0.316,0-0.57-0.079-0.762-0.237s-0.287-0.385-0.287-0.681v-3.967c0-0.316,0.098-0.573,0.295-0.77
		c0.197-0.197,0.453-0.296,0.771-0.296h4.558h4.557c0.316,0,0.573,0.099,0.771,0.296c0.196,0.196,0.295,0.453,0.295,0.77v3.099
		c0,0.316-0.099,0.573-0.295,0.771c-0.197,0.196-0.454,0.295-0.771,0.295h-3.787v0.049c0,0.307,0.068,0.5,0.205,0.582
		s0.457,0.123,0.959,0.123h3.065c0.339,0,0.573-0.065,0.705-0.196c0.099-0.416,0.251-0.722,0.459-0.918
		c0.24-0.241,0.524-0.296,0.853-0.164c0.437,0.164,0.584,0.628,0.442,1.394c-0.153,0.514-0.404,0.874-0.754,1.081
		c-0.339,0.197-0.853,0.296-1.541,0.296H251.165z M244.854,79.438c-0.35,0-0.524-0.18-0.524-0.541c0-0.35,0.175-0.524,0.524-0.524
		h2.459c0.35,0,0.524,0.175,0.524,0.524c0,0.361-0.175,0.541-0.524,0.541h-1.229H244.854z M245.166,77.799
		c-0.35,0-0.524-0.175-0.524-0.525c0-0.349,0.175-0.524,0.524-0.524h1.065h1.082c0.35,0,0.524,0.176,0.524,0.524
		c0,0.351-0.175,0.525-0.524,0.525H245.166z M245.625,82.077h1.344h1.361v-0.722h-2.312c-0.263,0-0.394,0.131-0.394,0.394V82.077z
		 M245.92,83.962h2.41v-0.705h-1.361h-1.344v0.41C245.625,83.863,245.724,83.962,245.92,83.962z M250.182,82.077h1.459h1.476v-0.41
		c0-0.207-0.104-0.312-0.312-0.312h-2.623V82.077z M250.182,83.962h2.541c0.263,0,0.394-0.131,0.394-0.394v-0.312h-1.476h-1.459
		V83.962z M251.444,77.799c-0.351,0-0.524-0.175-0.524-0.525c0-0.349,0.174-0.524,0.524-0.524h2.114c0.35,0,0.525,0.176,0.525,0.524
		c0,0.351-0.176,0.525-0.525,0.525h-1.065H251.444z M251.444,79.438c-0.351,0-0.524-0.18-0.524-0.541
		c0-0.35,0.174-0.524,0.524-0.524h2.491c0.35,0,0.524,0.175,0.524,0.524c0,0.361-0.175,0.541-0.524,0.541h-1.245H251.444z"/>
</g>
<g>
	<g>
		<path fill="#FFFFFF" d="M155.62,62.571c-1.366-1.366-0.971-2.301,1.187-2.805c2.731-0.719,4.937-1.485,6.614-2.3h-3.164
			c-0.695,0-1.258-0.216-1.689-0.647c-0.431-0.432-0.646-0.994-0.646-1.689V44.022c0-0.695,0.216-1.259,0.646-1.689
			c0.432-0.432,0.994-0.647,1.689-0.647h9.813h9.85c0.695,0,1.259,0.216,1.689,0.647c0.432,0.431,0.647,0.995,0.647,1.689V55.13
			c0,0.695-0.216,1.258-0.647,1.689c-0.431,0.432-0.994,0.647-1.689,0.647h-3.738c2.708,0.887,5.188,1.785,7.441,2.695
			c1.102,0.455,1.605,0.899,1.51,1.33c-0.072,0.383-0.684,0.851-1.834,1.402c-0.479,0.239-0.862,0.371-1.15,0.396
			c-0.359,0.023-0.754-0.072-1.186-0.288c-1.606-0.79-3.511-1.605-5.716-2.444c-1.03-0.383-1.594-0.845-1.689-1.384
			s0.275-1.072,1.114-1.6l0.18-0.107h-9.957l1.689,0.755c0.432,0.191,0.665,0.419,0.701,0.683c0.035,0.264-0.126,0.504-0.485,0.719
			c-2.157,1.198-5.033,2.385-8.628,3.559C157.166,63.47,156.314,63.266,155.62,62.571z M158.352,40.212
			c-0.694,0-1.258-0.216-1.689-0.647c-0.431-0.431-0.646-0.994-0.646-1.689v-4.169c0-0.695,0.216-1.258,0.646-1.689
			c0.432-0.432,0.995-0.647,1.689-0.647h11.719h11.719c0.695,0,1.259,0.216,1.69,0.647c0.431,0.431,0.646,0.995,0.646,1.689v4.169
			c0,0.696-0.216,1.259-0.646,1.689c-0.432,0.432-0.995,0.647-1.69,0.647H158.352z M160.797,37.048h1.258h2.156v-2.48h-3.414
			c-0.575,0-0.863,0.288-0.863,0.863v0.755C159.934,36.761,160.222,37.048,160.797,37.048z M162.198,46.143h15.601v-1.006
			c0-0.503-0.251-0.755-0.754-0.755h-7.046h-6.938c-0.575,0-0.862,0.288-0.862,0.863V46.143z M162.198,50.457h15.601v-1.798h-7.8
			h-7.801V50.457z M162.989,54.771h13.947c0.575,0,0.862-0.288,0.862-0.862v-0.936h-7.8h-7.801v1.007
			C162.198,54.507,162.462,54.771,162.989,54.771z M167.734,37.048h2.121h2.156v-2.48h-4.277V37.048z M175.534,37.048h2.229h1.401
			c0.575,0,0.863-0.288,0.863-0.863v-0.755c0-0.575-0.288-0.863-0.863-0.863h-3.631V37.048z"/>
		<path fill="#FFFFFF" d="M202.136,63.541c-1.318-0.048-2.134-0.61-2.444-1.689c-0.288-0.934-0.216-1.568,0.216-1.905
			c0.359-0.311,1.065-0.442,2.12-0.396c0.12,0,0.228,0,0.323,0c1.007,0,1.714-0.251,2.121-0.754
			c0.432-0.336,0.755-0.851,0.971-1.546c0.216-0.72,0.288-1.546,0.216-2.48c-3.427,2.564-7.382,4.722-11.862,6.47
			c-0.624,0.24-1.139,0.294-1.546,0.162c-0.408-0.132-0.779-0.473-1.114-1.024c-0.455-0.742-0.563-1.342-0.323-1.797
			c0.215-0.407,0.755-0.743,1.617-1.007c2.301-0.767,4.541-1.726,6.722-2.876c2.253-1.174,4.099-2.384,5.536-3.63
			c-0.287-0.576-0.503-0.995-0.646-1.259c-2.541,1.726-5.608,3.331-9.203,4.817c-0.575,0.191-1.055,0.239-1.438,0.144
			c-0.384-0.096-0.731-0.396-1.043-0.898c-0.479-0.695-0.599-1.259-0.359-1.689c0.191-0.384,0.719-0.695,1.582-0.936
			c3.523-1.15,6.362-2.467,8.52-3.954c-0.384-0.383-0.683-0.67-0.898-0.863c-2.35,1.079-4.614,1.941-6.794,2.588
			c-1.103,0.312-1.93,0.024-2.481-0.863c-0.886-1.366-0.467-2.229,1.259-2.588c3.163-0.814,5.932-1.833,8.304-3.055h-3.379
			c-1.198,0-1.797-0.599-1.797-1.797c0-1.198,0.599-1.797,1.797-1.797h7.729h7.765c1.198,0,1.797,0.599,1.797,1.797
			c0,1.199-0.599,1.797-1.797,1.797h-2.265c0.383,1.39,0.874,2.78,1.474,4.169c1.295-0.886,2.48-1.773,3.559-2.66
			c0.936-0.839,1.905-0.827,2.912,0.036c1.198,1.031,1.114,2.049-0.252,3.056c-1.485,1.031-2.983,1.989-4.493,2.875
			c1.438,2.373,3.199,4.278,5.284,5.716c0.887,0.527,1.414,1.055,1.582,1.582c0.191,0.599-0.013,1.271-0.611,2.013
			c-0.479,0.6-0.971,0.923-1.474,0.971c-0.479,0.071-1.055-0.108-1.726-0.54c-4.673-3.33-7.993-9.07-9.957-17.218h-0.072
			c-0.815,0.695-1.81,1.39-2.983,2.084c2.108,1.846,3.618,4.039,4.529,6.579c0.814,2.229,1.054,4.398,0.719,6.507
			c-0.336,2.013-1.103,3.462-2.301,4.349c-0.646,0.576-1.307,0.971-1.977,1.187c-0.647,0.216-1.438,0.323-2.373,0.323
			C202.842,63.541,202.495,63.541,202.136,63.541z M192.969,40.751c-1.39,0-2.085-0.695-2.085-2.085v-3.595
			c0-0.695,0.216-1.258,0.647-1.689c0.431-0.432,0.994-0.647,1.689-0.647h10.497v-0.647c0-1.438,0.718-2.157,2.156-2.157
			s2.157,0.719,2.157,2.157v0.647h10.712c0.694,0,1.258,0.215,1.689,0.647s0.647,0.995,0.647,1.689v3.523
			c0,1.438-0.72,2.157-2.157,2.157c-1.462,0-2.192-0.719-2.192-2.157V37.48c0-0.575-0.288-0.863-0.863-0.863h-9.993h-9.957
			c-0.576,0-0.863,0.288-0.863,0.863v1.186C195.054,40.056,194.358,40.751,192.969,40.751z"/>
		<path fill="#FFFFFF" d="M241.75,46c-1.367,0-2.05-0.683-2.05-2.049v-5.428h-8.843c-0.575,0-0.863,0.288-0.863,0.862v1.726
			c0,1.247-0.623,1.869-1.868,1.869c-1.247,0-1.87-0.623-1.87-1.869v-3.091c0-0.695,0.216-1.258,0.647-1.689
			s0.994-0.647,1.689-0.647H239.7v-1.366h-9.418c-1.055,0-1.582-0.527-1.582-1.582c0-1.054,0.527-1.582,1.582-1.582h11.503h11.539
			c1.055,0,1.582,0.528,1.582,1.582c0,1.055-0.527,1.582-1.582,1.582h-9.526v1.366h11.396c0.695,0,1.258,0.216,1.689,0.647
			s0.647,0.995,0.647,1.689v3.02c0,1.294-0.647,1.941-1.941,1.941c-1.318,0-1.978-0.646-1.978-1.941v-1.654
			c0-0.575-0.287-0.862-0.862-0.862h-8.951v5.428C243.798,45.316,243.115,46,241.75,46z M245.703,63.361
			c-2.444,0-4.092-0.329-4.942-0.988s-1.276-1.936-1.276-3.828v-0.108h-5.931v0.072c0,1.007-0.575,1.51-1.726,1.51
			c-0.695,0-1.252-0.174-1.672-0.521c-0.419-0.348-0.629-0.846-0.629-1.492v-8.699c0-0.695,0.216-1.258,0.646-1.689
			c0.432-0.432,0.995-0.647,1.69-0.647h9.993h9.993c0.694,0,1.258,0.216,1.689,0.647c0.432,0.431,0.647,0.995,0.647,1.689v6.794
			c0,0.695-0.216,1.258-0.647,1.689s-0.995,0.646-1.689,0.646h-8.304v0.108c0,0.671,0.149,1.096,0.449,1.276
			c0.3,0.18,1,0.27,2.103,0.27h6.723c0.742,0,1.258-0.145,1.546-0.432c0.216-0.91,0.551-1.582,1.007-2.013
			c0.526-0.527,1.149-0.647,1.868-0.359c0.959,0.359,1.282,1.378,0.971,3.055c-0.336,1.126-0.887,1.917-1.653,2.373
			c-0.743,0.431-1.869,0.646-3.379,0.646H245.703z M231.864,45.64c-0.768,0-1.15-0.396-1.15-1.187c0-0.767,0.383-1.15,1.15-1.15
			h5.392c0.767,0,1.15,0.384,1.15,1.15c0,0.791-0.384,1.187-1.15,1.187h-2.695H231.864z M232.547,42.045
			c-0.768,0-1.15-0.383-1.15-1.15s0.383-1.15,1.15-1.15h2.337h2.372c0.767,0,1.15,0.383,1.15,1.15s-0.384,1.15-1.15,1.15H232.547z
			 M233.554,51.427h2.947h2.983v-1.581h-5.068c-0.575,0-0.862,0.288-0.862,0.863V51.427z M234.2,55.562h5.284v-1.546h-2.983h-2.947
			v0.898C233.554,55.346,233.77,55.562,234.2,55.562z M243.547,51.427h3.199h3.235v-0.898c0-0.455-0.229-0.683-0.684-0.683h-5.751
			V51.427z M243.547,55.562h5.571c0.575,0,0.863-0.288,0.863-0.863v-0.683h-3.235h-3.199V55.562z M246.314,42.045
			c-0.767,0-1.149-0.383-1.149-1.15s0.383-1.15,1.149-1.15h4.638c0.767,0,1.149,0.383,1.149,1.15s-0.383,1.15-1.149,1.15h-2.337
			H246.314z M246.314,45.64c-0.767,0-1.149-0.396-1.149-1.187c0-0.767,0.383-1.15,1.149-1.15h5.465c0.766,0,1.149,0.384,1.149,1.15
			c0,0.791-0.384,1.187-1.149,1.187h-2.732H246.314z"/>
	</g>
</g>
<g>
	<radialGradient id="SVGID_1_" cx="93.8193" cy="7.4717" r="86.237" gradientUnits="userSpaceOnUse">
		<stop  offset="0" style="stop-color:#0090E3"/>
		<stop  offset="1" style="stop-color:#1F2B60"/>
	</radialGradient>
	<path fill="url(#SVGID_1_)" d="M75.32,42.345v15.761c0,0.053-0.005,0.098-0.007,0.149c-0.018,0.185-0.415,4.308-3.528,6.353
		c-0.012,0.004-0.02,0.014-0.032,0.021c-0.131,0.088-0.27,0.169-0.415,0.246c-0.848,0.463-1.779,0.73-2.794,0.8
		c-0.014,0-0.028,0.005-0.041,0.005c-1.987,0.137-4.285-0.476-6.864-1.829c-0.832-0.438-1.151-1.46-0.716-2.29
		c0.438-0.829,1.461-1.148,2.291-0.717c1.156,0.607,2.581,1.213,3.927,1.398c0.017,0.003,0.032,0.003,0.046,0.007
		c0.916,0.123,1.794,0.048,2.526-0.354c0.27-0.146,0.508-0.329,0.716-0.534c0.011-0.012,0.02-0.021,0.032-0.031v-0.003
		c1.14-1.144,1.42-2.975,1.464-3.316V43.836C73.125,43.374,74.255,42.872,75.32,42.345z"/>
	<g>
		<radialGradient id="SVGID_2_" cx="93.8179" cy="7.4692" r="86.2406" gradientUnits="userSpaceOnUse">
			<stop  offset="0" style="stop-color:#0090E3"/>
			<stop  offset="1" style="stop-color:#1F2B60"/>
		</radialGradient>
		<path fill="url(#SVGID_2_)" d="M123.109,25.265c-0.379,1.514-1.099,4.326-1.976,7.396c-0.159,0.559-0.326,1.127-0.494,1.703
			c-0.167,0.562-0.34,1.126-0.512,1.688h-0.066c-0.32-0.329-0.771-0.526-1.26-0.51c-0.306,0.01-0.596,0.104-0.84,0.256
			c-0.499,0.309-0.82,0.866-0.802,1.494c0.004,0.299,0.084,2.56,0.454,5.749v0.002c-0.477,1.048-0.934,1.854-1.351,2.304
			c-0.022,0.029-0.05,0.055-0.077,0.075c-0.326,0.313-0.746,0.47-1.167,0.47c-0.415,0-0.83-0.149-1.154-0.455
			c-0.686-0.635-0.727-1.708-0.088-2.396c0.413-0.447,1.04-1.904,1.768-3.952v-0.005c0.48-1.359,1.006-2.981,1.541-4.738
			c0.022-0.013,0.05-0.032,0.077-0.048c0.002-0.149,0.027-0.296,0.068-0.434c0.002-0.007,0.007-0.014,0.007-0.022
			c0.893-2.97,1.804-6.292,2.581-9.398c0.229-0.907,1.151-1.462,2.058-1.236C122.783,23.438,123.336,24.358,123.109,25.265z"/>
		<radialGradient id="SVGID_3_" cx="94.0137" cy="7.4902" r="85.8919" gradientUnits="userSpaceOnUse">
			<stop  offset="0" style="stop-color:#0090E3"/>
			<stop  offset="1" style="stop-color:#1F2B60"/>
		</radialGradient>
		<path fill="url(#SVGID_3_)" d="M117.229,33.864c-0.041,0.138-0.065,0.285-0.068,0.434c-0.027,0.016-0.054,0.035-0.077,0.048
			C117.134,34.184,117.181,34.027,117.229,33.864z"/>
		<radialGradient id="SVGID_4_" cx="93.1416" cy="7.502" r="87.2113" gradientUnits="userSpaceOnUse">
			<stop  offset="0" style="stop-color:#0090E3"/>
			<stop  offset="1" style="stop-color:#1F2B60"/>
		</radialGradient>
		<path fill="url(#SVGID_4_)" d="M120.127,36.052c-0.005,0.019-0.012,0.034-0.018,0.05c-0.014-0.016-0.03-0.032-0.048-0.05H120.127z
			"/>
	</g>
	<g>
		<radialGradient id="SVGID_5_" cx="93.8145" cy="7.4712" r="86.2391" gradientUnits="userSpaceOnUse">
			<stop  offset="0" style="stop-color:#0090E3"/>
			<stop  offset="1" style="stop-color:#1F2B60"/>
		</radialGradient>
		<path fill="url(#SVGID_5_)" d="M126.01,56.796v0.003c-0.279,0.733-0.578,1.463-0.902,2.182c-0.696-1.458-1.299-3.064-1.811-4.736
			c0.352-1.036,0.653-2.08,0.918-3.118c1.695-6.632,1.842-12.997,1.837-15.074h3.396C129.47,38.877,129.259,48.21,126.01,56.796z"/>
	</g>
	<radialGradient id="SVGID_6_" cx="93.8237" cy="7.4883" r="86.2098" gradientUnits="userSpaceOnUse">
		<stop  offset="0" style="stop-color:#0090E3"/>
		<stop  offset="1" style="stop-color:#1F2B60"/>
	</radialGradient>
	<path fill="url(#SVGID_6_)" d="M132.658,34.355c0,0.937-0.759,1.697-1.695,1.697h-10.836c0.172-0.562,0.344-1.126,0.512-1.688
		c0.168-0.576,0.335-1.144,0.494-1.703h9.83C131.899,32.661,132.658,33.419,132.658,34.355z"/>
	<radialGradient id="SVGID_7_" cx="93.8169" cy="7.4717" r="86.2375" gradientUnits="userSpaceOnUse">
		<stop  offset="0" style="stop-color:#0090E3"/>
		<stop  offset="1" style="stop-color:#1F2B60"/>
	</radialGradient>
	<path fill="url(#SVGID_7_)" d="M123.209,62.577c-0.322,0.532-0.664,1.052-1.026,1.556c-1.468,2.064-3.234,3.907-5.35,5.376
		c-0.297,0.202-0.632,0.302-0.965,0.302c-0.54,0-1.068-0.254-1.399-0.729c-0.532-0.77-0.342-1.828,0.429-2.36
		c2.227-1.542,4.006-3.608,5.432-5.949v-0.004c0.374-0.604,0.72-1.227,1.047-1.865C121.915,60.199,122.524,61.437,123.209,62.577z"
		/>
	<radialGradient id="SVGID_8_" cx="93.8174" cy="7.4707" r="86.2398" gradientUnits="userSpaceOnUse">
		<stop  offset="0" style="stop-color:#0090E3"/>
		<stop  offset="1" style="stop-color:#1F2B60"/>
	</radialGradient>
	<path fill="url(#SVGID_8_)" d="M144.198,49.453c0,0.853-0.027,1.699-0.084,2.539c-0.261,4.171-1.174,8.167-2.635,11.887
		c-0.068,0.139-0.136,0.279-0.207,0.42l-0.004,0.005c-0.936,1.836-2.183,3.38-3.871,4.304c-0.822,0.45-1.701,0.727-2.63,0.836
		c-0.014,0.001-0.029,0.004-0.043,0.004c-0.283,0.032-0.571,0.051-0.866,0.051c-1.481,0-3.084-0.404-4.797-1.204
		c-2.399-1.12-4.317-3.175-5.851-5.717c-0.685-1.141-1.294-2.378-1.833-3.674c-2.196-5.253-3.259-11.443-3.764-15.86v-0.002
		c-0.37-3.188-0.449-5.45-0.454-5.749c-0.018-0.628,0.303-1.186,0.802-1.494c0.245-0.152,0.534-0.246,0.84-0.256
		c0.49-0.016,0.94,0.181,1.26,0.51c0.018,0.019,0.034,0.034,0.048,0.05c0.26,0.29,0.423,0.671,0.437,1.084
		c0.113,3.665,0.836,10.819,2.75,17.057c0.512,1.672,1.115,3.278,1.811,4.736c1.382,2.894,3.147,5.194,5.387,6.241
		c2.185,1.019,3.914,1.152,5.275,0.405c0.97-0.528,1.75-1.482,2.379-2.668v-0.001c0-0.003,0.001-0.003,0.001-0.003l0.005-0.011
		c0-0.005,0.003-0.005,0.003-0.005c0.065-0.125,0.126-0.247,0.188-0.372c1.573-4.03,2.444-8.414,2.458-12.995v-0.119
		c0-19.336-15.25-35.18-34.356-36.127c-0.602-0.033-1.208-0.047-1.817-0.047h-0.041c-0.276,0-0.545,0.004-0.818,0.011h-0.106
		c-0.297,0.009-0.596,0.02-0.895,0.037c-0.308,0.013-0.614,0.032-0.92,0.059c-0.514,0.037-1.026,0.089-1.536,0.152
		c-0.315,0.039-0.63,0.079-0.943,0.124c-0.039,0.005-0.075,0.012-0.11,0.019c-0.27,0.039-0.533,0.078-0.798,0.124
		c-0.06,0.012-0.116,0.019-0.17,0.032c-0.279,0.048-0.553,0.098-0.83,0.158c-0.202,0.04-0.41,0.083-0.613,0.127
		c-0.202,0.046-0.406,0.095-0.61,0.145c-0.17,0.041-0.342,0.079-0.512,0.125c-0.021,0.001-0.039,0.009-0.059,0.017
		c-0.271,0.068-0.546,0.142-0.814,0.216c-0.247,0.072-0.496,0.143-0.743,0.217c-0.492,0.144-0.981,0.306-1.466,0.478
		c-1.255,0.435-2.479,0.942-3.665,1.514c-0.131,0.061-0.264,0.129-0.398,0.195c-0.018,0.01-0.039,0.016-0.054,0.025
		c-0.215,0.108-0.428,0.212-0.642,0.327c-0.005,0.001-0.005,0.001-0.006,0.007c-0.224,0.111-0.447,0.231-0.662,0.352
		c-0.553,0.302-1.098,0.62-1.63,0.95c-0.19,0.117-0.381,0.233-0.566,0.359c-0.143,0.089-0.286,0.18-0.429,0.28
		c-0.229,0.152-0.458,0.308-0.684,0.467c-0.184,0.126-0.363,0.255-0.544,0.388c-0.131,0.095-0.26,0.188-0.39,0.287
		c-0.19,0.141-0.376,0.281-0.562,0.43c-0.195,0.149-0.388,0.3-0.578,0.457c-0.922,0.75-1.813,1.544-2.655,2.381
		c-0.089,0.084-0.18,0.172-0.266,0.265c-0.141,0.134-0.279,0.277-0.415,0.419c-0.166,0.172-0.329,0.351-0.492,0.526
		c-0.156,0.168-0.308,0.337-0.458,0.506c-0.184,0.204-0.361,0.408-0.537,0.616v-0.364c0-1.469-0.155-2.833-0.472-4.093
		c0.682-0.69,1.391-1.353,2.121-1.988c0.111-0.097,0.224-0.197,0.339-0.292c0.111-0.098,0.225-0.193,0.34-0.288
		c0.193-0.159,0.39-0.321,0.587-0.479c0.147-0.12,0.299-0.238,0.446-0.351c0.143-0.114,0.286-0.222,0.428-0.328
		c0.157-0.123,0.313-0.235,0.472-0.351c0.566-0.422,1.146-0.823,1.733-1.206c0.215-0.137,0.428-0.279,0.642-0.411
		c0.218-0.136,0.435-0.268,0.652-0.397c0.193-0.122,0.386-0.232,0.576-0.341c0.136-0.083,0.279-0.161,0.417-0.237
		c0.113-0.067,0.224-0.128,0.333-0.187c0.115-0.065,0.231-0.124,0.347-0.186c0.712-0.385,1.439-0.749,2.173-1.083
		c0.106-0.052,0.208-0.1,0.313-0.143c0.034-0.018,0.066-0.032,0.1-0.045c0.172-0.077,0.344-0.156,0.519-0.227
		c0.233-0.103,0.471-0.204,0.711-0.299c0.238-0.097,0.478-0.194,0.72-0.286c0.235-0.091,0.48-0.184,0.721-0.266
		c0.283-0.103,0.564-0.201,0.85-0.297c0.206-0.069,0.413-0.137,0.623-0.204c0.245-0.076,0.497-0.156,0.744-0.226
		c0.224-0.068,0.449-0.135,0.673-0.191c0.291-0.087,0.587-0.163,0.884-0.239c0.238-0.056,0.476-0.115,0.714-0.169
		c0.129-0.029,0.253-0.059,0.383-0.088c0.125-0.027,0.254-0.055,0.383-0.079v-0.005c0.007-0.004,0.014-0.004,0.025-0.004
		c0.247-0.05,0.499-0.1,0.75-0.148c0.256-0.052,0.515-0.097,0.777-0.14c0.553-0.09,1.112-0.172,1.675-0.244
		c0.293-0.037,0.585-0.068,0.875-0.097c0.25-0.025,0.494-0.048,0.742-0.068c0.738-0.062,1.486-0.103,2.234-0.123
		c0.358-0.012,0.709-0.013,1.067-0.013c0.666,0,1.333,0.018,1.992,0.049C127.519,10.978,144.198,28.307,144.198,49.453z"/>
	<g>
		<radialGradient id="SVGID_9_" cx="93.8184" cy="7.4697" r="86.2432" gradientUnits="userSpaceOnUse">
			<stop  offset="0" style="stop-color:#0090E3"/>
			<stop  offset="1" style="stop-color:#1F2B60"/>
		</radialGradient>
		<path fill="url(#SVGID_9_)" d="M76.539,21.579c5.707-5.75,13.167-9.755,21.5-11.147c-8.33,1.41-15.792,5.423-21.496,11.179
			C76.544,21.602,76.542,21.589,76.539,21.579z"/>
		<radialGradient id="SVGID_10_" cx="93.8223" cy="7.4819" r="86.114" gradientUnits="userSpaceOnUse">
			<stop  offset="0" style="stop-color:#0090E3"/>
			<stop  offset="1" style="stop-color:#1F2B60"/>
		</radialGradient>
		<path fill="url(#SVGID_10_)" d="M99.714,10.188c-0.563,0.072-1.122,0.154-1.675,0.244C98.592,10.338,99.152,10.255,99.714,10.188z
			"/>
		<radialGradient id="SVGID_11_" cx="93.8228" cy="7.4478" r="86.245" gradientUnits="userSpaceOnUse">
			<stop  offset="0" style="stop-color:#0090E3"/>
			<stop  offset="1" style="stop-color:#1F2B60"/>
		</radialGradient>
		<path fill="url(#SVGID_11_)" d="M103.564,9.9c-0.748,0.02-1.496,0.062-2.234,0.123C102.069,9.956,102.817,9.917,103.564,9.9z"/>
		<radialGradient id="SVGID_12_" cx="93.8169" cy="7.4707" r="86.2387" gradientUnits="userSpaceOnUse">
			<stop  offset="0" style="stop-color:#0090E3"/>
			<stop  offset="1" style="stop-color:#1F2B60"/>
		</radialGradient>
		<path fill="url(#SVGID_12_)" d="M140.805,49.453v0.119c-0.014,0.006-0.023,0.013-0.037,0.02v-0.139
			c0-19.323-15.234-35.155-34.319-36.127C125.555,14.273,140.805,30.117,140.805,49.453z"/>
		<radialGradient id="SVGID_13_" cx="93.8184" cy="7.4731" r="86.2368" gradientUnits="userSpaceOnUse">
			<stop  offset="0" style="stop-color:#0090E3"/>
			<stop  offset="1" style="stop-color:#1F2B60"/>
		</radialGradient>
		<path fill="url(#SVGID_13_)" d="M138.407,69.983c-0.211,0.343-0.423,0.688-0.646,1.022c-0.152,0.236-0.31,0.472-0.467,0.7
			c-0.054,0.084-0.109,0.161-0.167,0.238c-0.182,0.266-0.37,0.526-0.561,0.789c-0.21,0.29-0.427,0.577-0.647,0.862
			c-0.014,0.02-0.027,0.035-0.041,0.054c-0.204,0.262-0.413,0.527-0.628,0.787c-0.022,0.035-0.048,0.064-0.075,0.094
			c-0.181,0.22-0.363,0.438-0.549,0.652c-0.086,0.098-0.169,0.2-0.258,0.297c-0.192,0.222-0.387,0.441-0.587,0.655
			c-0.245,0.271-0.496,0.539-0.754,0.802c-0.016,0.016-0.029,0.029-0.043,0.048c-0.237,0.247-0.478,0.487-0.722,0.726
			c-0.002,0.002-0.007,0.007-0.009,0.009c-0.524,0.512-1.059,1.008-1.609,1.49c-0.265,0.231-0.528,0.461-0.8,0.685
			c-0.019,0.014-0.032,0.024-0.048,0.04c-0.011,0.008-0.018,0.016-0.027,0.022c-0.179,0.148-0.362,0.296-0.546,0.44
			c-0.034,0.03-0.073,0.062-0.109,0.087c-0.031,0.021-0.058,0.044-0.088,0.069c-0.022,0.021-0.052,0.039-0.075,0.062
			c-0.007,0.003-0.009,0.007-0.018,0.014c-0.047,0.036-0.09,0.07-0.138,0.109c-0.027,0.018-0.053,0.04-0.077,0.059
			c-0.106,0.084-0.208,0.161-0.313,0.243c-0.006,0.004-0.013,0.009-0.021,0.013c-0.022,0.017-0.051,0.039-0.077,0.058
			c-0.025,0.02-0.049,0.037-0.075,0.054c-0.052,0.041-0.107,0.078-0.156,0.115c-0.075,0.056-0.154,0.115-0.231,0.17
			c-0.052,0.039-0.102,0.075-0.156,0.112c-0.039,0.029-0.075,0.059-0.116,0.082c-0.068,0.054-0.139,0.103-0.211,0.152
			c-0.049,0.037-0.101,0.075-0.156,0.108c-0.007,0.009-0.016,0.015-0.028,0.019c-0.008,0.007-0.02,0.016-0.029,0.022
			c-0.041,0.029-0.081,0.057-0.123,0.084c-0.054,0.039-0.108,0.075-0.163,0.111c-0.176,0.125-0.355,0.242-0.535,0.36
			c-0.02,0.015-0.042,0.027-0.063,0.041c-0.049,0.029-0.098,0.065-0.148,0.1c-0.176,0.115-0.355,0.227-0.537,0.342
			c-0.299,0.187-0.599,0.369-0.902,0.545c-0.243,0.145-0.482,0.287-0.73,0.421c-0.224,0.127-0.444,0.249-0.668,0.372
			c-0.227,0.122-0.451,0.244-0.678,0.357c-0.115,0.06-0.235,0.121-0.352,0.182h-0.002c-0.109,0.054-0.22,0.108-0.329,0.162
			c-0.338,0.166-0.675,0.325-1.018,0.48c-0.195,0.087-0.387,0.171-0.578,0.257c-0.193,0.084-0.387,0.165-0.585,0.246
			c-0.192,0.081-0.39,0.159-0.582,0.239c-0.143,0.056-0.286,0.11-0.43,0.166c-0.251,0.098-0.504,0.191-0.757,0.285
			c-0.004,0-0.011,0.001-0.014,0.001c-0.072,0.027-0.143,0.052-0.213,0.08c-0.143,0.047-0.29,0.097-0.43,0.149
			c-0.08,0.025-0.155,0.049-0.231,0.077c-0.08,0.026-0.161,0.055-0.243,0.078c-0.227,0.074-0.453,0.144-0.682,0.217
			c-0.409,0.121-0.814,0.239-1.228,0.353c-0.207,0.057-0.413,0.111-0.621,0.164c-0.207,0.052-0.413,0.104-0.623,0.151
			c-0.134,0.032-0.266,0.061-0.397,0.092c-0.055,0.015-0.108,0.023-0.164,0.032c-0.086,0.019-0.167,0.039-0.251,0.057
			c-0.132,0.03-0.26,0.058-0.395,0.084c-0.091,0.016-0.186,0.038-0.281,0.055c-0.123,0.022-0.245,0.048-0.37,0.07
			c-0.224,0.04-0.451,0.081-0.68,0.123c-0.034,0.008-0.066,0.011-0.102,0.018c-0.391,0.063-0.787,0.122-1.183,0.175
			c-0.219,0.028-0.436,0.056-0.653,0.082c-0.215,0.025-0.433,0.052-0.65,0.071c-0.428,0.041-0.861,0.077-1.297,0.109
			c-0.013,0.002-0.029,0.002-0.047,0.002c-0.428,0.029-0.861,0.047-1.292,0.061c-0.177,0.009-0.354,0.015-0.53,0.015h-0.009
			c-0.251,0.008-0.506,0.011-0.757,0.011h-0.041c-0.183,0-0.372,0-0.553-0.007c-0.129,0-0.258-0.004-0.388-0.007
			c-0.038,0-0.075,0-0.113-0.003c-0.315-0.009-0.625-0.022-0.938-0.033c-0.676-0.036-1.344-0.084-2.01-0.154
			c-0.213-0.021-0.426-0.046-0.636-0.07c-0.417-0.053-0.834-0.105-1.251-0.167c-0.414-0.063-0.824-0.131-1.237-0.207
			c-0.002,0-0.002,0-0.002,0c-0.383-0.072-0.766-0.146-1.151-0.227c-0.378-0.082-0.754-0.17-1.135-0.262
			c-0.354-0.09-0.707-0.18-1.056-0.274c-0.347-0.097-0.696-0.198-1.042-0.302c-0.646-0.201-1.287-0.415-1.922-0.642
			c-9.511-3.438-17.335-10.428-21.872-19.363c0.013-0.002,0.025-0.002,0.039-0.007c1.011-0.143,1.958-0.457,2.833-0.937
			c0.123-0.065,0.238-0.136,0.354-0.202c4.606,8.815,12.749,15.507,22.526,18.182c0.141,0.04,0.279,0.078,0.419,0.111
			c0.138,0.036,0.274,0.073,0.417,0.104c0.007,0.006,0.016,0.006,0.023,0.01c0.224,0.056,0.451,0.111,0.679,0.16
			c0.177,0.044,0.35,0.081,0.526,0.116c0.191,0.045,0.376,0.081,0.567,0.115c0.186,0.039,0.376,0.07,0.566,0.107
			c0.379,0.065,0.76,0.131,1.142,0.186c0.408,0.062,0.818,0.11,1.233,0.158c0.415,0.046,0.827,0.086,1.244,0.115
			c0.265,0.024,0.525,0.041,0.795,0.055c0.282,0.013,0.563,0.024,0.845,0.034l0.397,0.01c0.247,0.004,0.494,0.008,0.743,0.008h0.05
			c0.206,0,0.415-0.004,0.621-0.008c0.129-0.003,0.258-0.005,0.39-0.01c0.183-0.002,0.372-0.01,0.553-0.021
			c0.141-0.001,0.281-0.008,0.421-0.02c0.22-0.011,0.442-0.026,0.662-0.043c0.17-0.012,0.335-0.025,0.504-0.041
			c0.022,0,0.042-0.001,0.068-0.007c0.255-0.025,0.512-0.048,0.766-0.081c0.095-0.007,0.186-0.019,0.281-0.032
			c0.141-0.017,0.279-0.032,0.417-0.052c0.036-0.004,0.073-0.01,0.107-0.017c0.02,0,0.041-0.003,0.061-0.006
			c0.337-0.043,0.677-0.095,1.013-0.153c0.177-0.028,0.354-0.059,0.525-0.09c0.178-0.031,0.354-0.065,0.528-0.102
			c0.174-0.032,0.349-0.071,0.521-0.106c0.173-0.036,0.347-0.075,0.52-0.116c0.171-0.036,0.346-0.077,0.517-0.123
			c0.258-0.06,0.514-0.125,0.77-0.193c0.253-0.068,0.508-0.141,0.762-0.211c0.34-0.097,0.673-0.199,1.006-0.308
			c0.446-0.146,0.891-0.298,1.333-0.46h0.004c6.598-2.427,12.304-6.724,16.465-12.246h0.036c0.109,0.004,0.22,0.009,0.326,0.009
			c1.557,0,3.021-0.37,4.354-1.097C138.274,70.06,138.342,70.021,138.407,69.983z"/>
	</g>
	<radialGradient id="SVGID_14_" cx="93.8179" cy="7.4707" r="86.2387" gradientUnits="userSpaceOnUse">
		<stop  offset="0" style="stop-color:#0090E3"/>
		<stop  offset="1" style="stop-color:#1F2B60"/>
	</radialGradient>
	<path fill="url(#SVGID_14_)" d="M113.66,52.846c0.936,0,1.695-0.759,1.695-1.694c0-0.938-0.759-1.698-1.695-1.698h-5.344
		l-1.001-3.419c-0.266-0.9-1.208-1.411-2.103-1.151c-0.9,0.263-1.416,1.206-1.153,2.105l0.723,2.465h-5.88
		c-0.463,0-0.88,0.182-1.181,0.483l-2.313-6.324c-0.324-0.879-1.297-1.333-2.18-1.011c-0.877,0.323-1.331,1.294-1.006,2.179
		l0.675,1.845l-6.583,0.731l8.38-12.027c0.537-0.772,0.351-1.828-0.419-2.361c-0.77-0.538-1.826-0.35-2.364,0.419l-3.415,4.905
		c-0.122-0.052-0.255-0.084-0.394-0.107c-1.439-0.187-2.333-1.467-2.874-2.742c-0.004-0.01-0.011-0.023-0.014-0.035
		c-0.018-0.031-0.031-0.068-0.045-0.102c-0.002-0.007-0.002-0.009-0.007-0.016c-0.27-0.681-0.446-1.343-0.553-1.834
		c3.882-3.927,5.559-7.355,5.643-7.526c0.405-0.844,0.052-1.851-0.791-2.261c-0.84-0.406-1.856-0.055-2.267,0.787
		c-0.02,0.045-2.184,4.413-7.267,8.712c-1.455,1.235-2.991,2.333-4.607,3.308l-3.395,1.794c-0.641,0.3-1.294,0.574-1.96,0.832v0.004
		c-0.015,0.002-0.029,0.009-0.047,0.016c-0.288,0.111-0.576,0.221-0.868,0.327c-0.293,0.103-0.587,0.205-0.882,0.3
		c-0.027,0.012-0.059,0.021-0.086,0.03c-0.021,0.007-0.041,0.013-0.062,0.021c-0.167,0.054-0.342,0.107-0.512,0.162
		c-0.03,0.012-0.057,0.019-0.088,0.028c-0.188,0.056-0.383,0.118-0.576,0.176c-0.02,0.003-0.041,0.012-0.062,0.018
		c-0.176,0.05-0.354,0.099-0.533,0.147c-0.045,0.013-0.092,0.026-0.136,0.039c-0.013,0.004-0.031,0.009-0.045,0.013
		c-3.557,0.952-7.379,1.434-11.446,1.434c-0.954,0-1.867,0.032-2.746,0.089c-0.05,0-0.098,0.004-0.146,0.007
		c-2.466,0.159-4.641,0.522-6.558,1.021c0.231-3.354,0.374-7.113,0.43-11.293h18.349c0.936,0,1.698-0.762,1.698-1.697
		c0-0.941-0.762-1.698-1.698-1.698H45.63c0.002-0.281,0.002-0.562,0.002-0.848c0-0.095-0.007-0.191-0.023-0.285
		c-0.006-0.048-0.723-4.683,1.668-7.518c1.327-1.576,3.458-2.376,6.327-2.376h9.842c0.025,0,0.056,0,0.084-0.004
		c0.036-0.003,3.723-0.114,6.141,2.186c1.495,1.426,2.254,3.544,2.254,6.301v10.774c1.171-0.558,2.302-1.183,3.395-1.871v-8.903
		c0-0.904-0.063-1.763-0.197-2.577c-0.002-0.016-0.002-0.024-0.007-0.039c-0.415-2.511-1.453-4.57-3.107-6.146
		c-3.354-3.185-8.022-3.133-8.595-3.113h-9.81c-3.913,0-6.917,1.204-8.921,3.581c-3.165,3.756-2.586,9.113-2.443,10.12
		c0,0.826-0.004,1.627-0.012,2.412v0.007c-0.042,5.624-0.235,10.281-0.539,14.131c-2.903,1.178-5.011,2.653-6.497,4.005
		c-3.5,3.178-5.588,7.532-5.588,11.64c0,3.698,1.737,6.187,4.321,6.187c4.147,0,6.79-2.175,8.57-7.052
		c1.07-2.925,1.861-7.003,2.379-12.317c2.049-0.63,4.319-1.04,6.776-1.221c0.118-0.01,0.24-0.019,0.36-0.023
		c0.852-0.059,1.719-0.086,2.613-0.086c3.986,0,7.568-0.445,10.775-1.189c0.013-0.002,0.026-0.008,0.041-0.012
		c1.241-0.288,2.424-0.618,3.548-0.99c0.014-0.002,0.032-0.009,0.043-0.014c1.008-0.333,1.976-0.691,2.894-1.071l3.395-1.59
		c2.592-1.375,4.743-2.883,6.488-4.327c0.185,0.522,0.417,1.071,0.702,1.618c0.021,0.039,0.041,0.075,0.06,0.114l0.004,0.007
		c0.8,1.467,2.017,2.867,3.85,3.502l-5.031,7.224c-0.381,0.547-0.408,1.265-0.068,1.838c0.308,0.516,0.866,0.83,1.459,0.83
		c0.062,0,0.125-0.005,0.187-0.012l11.126-1.235l0.668,1.83c0.251,0.686,0.897,1.111,1.591,1.111c0.193,0,0.39-0.03,0.583-0.102
		c0.276-0.103,0.514-0.267,0.693-0.474c0.306,0.352,0.759,0.575,1.27,0.575h3.174c-0.166,1.352-0.433,2.898-0.802,4.469
		c-0.036,0.161-0.072,0.32-0.114,0.479v0.005c-1.069,4.327-2.879,8.712-5.354,9.561c-0.886,0.306-1.357,1.269-1.054,2.154
		c0.24,0.706,0.897,1.147,1.604,1.147c0.184,0,0.37-0.032,0.548-0.091c3.95-1.355,6.164-6.684,7.354-11.197
		c1.912-0.338,4.852-0.494,5.999,0.608c0.53,0.503,0.659,1.411,0.387,2.691c-0.031,0.149-0.044,0.303-0.033,0.453
		c0,0.016,0.041,1.58-1.015,2.73c-0.82,0.891-2.15,1.367-3.95,1.409c-0.936,0.025-1.675,0.803-1.654,1.738
		c0.022,0.925,0.775,1.657,1.695,1.657h0.041c2.756-0.07,4.897-0.914,6.365-2.508c1.746-1.898,1.911-4.189,1.911-4.975
		c0.58-2.999-0.436-4.728-1.401-5.649c-1.962-1.875-5.239-1.945-7.56-1.693c0.254-1.4,0.393-2.486,0.447-2.989H113.66z
		 M33.926,62.516c-0.315,0-0.929-0.986-0.929-2.792c0-1.187,0.322-5.356,4.48-9.13c1.115-1.015,2.402-1.89,3.843-2.626
		C39.65,62.516,36.092,62.516,33.926,62.516z"/>
	<radialGradient id="SVGID_15_" cx="93.8184" cy="7.4756" r="86.2319" gradientUnits="userSpaceOnUse">
		<stop  offset="0" style="stop-color:#0090E3"/>
		<stop  offset="1" style="stop-color:#1F2B60"/>
	</radialGradient>
	<path fill="url(#SVGID_15_)" d="M92.742,68.953c-0.311,0.549-0.883,0.857-1.475,0.857c-0.285,0-0.574-0.071-0.838-0.221
		c-0.813-0.46-1.099-1.499-0.637-2.313c3.009-5.301,2.894-9.212,2.889-9.252c-0.048-0.937,0.673-1.734,1.609-1.78
		c0.934-0.051,1.734,0.668,1.781,1.603C96.082,58.04,96.281,62.714,92.742,68.953z"/>
	<radialGradient id="SVGID_16_" cx="93.8169" cy="7.4756" r="86.2316" gradientUnits="userSpaceOnUse">
		<stop  offset="0" style="stop-color:#0090E3"/>
		<stop  offset="1" style="stop-color:#1F2B60"/>
	</radialGradient>
	<path fill="url(#SVGID_16_)" d="M90.56,57.979c-0.005,0.251-0.193,6.22-3.615,11.107c-0.331,0.474-0.857,0.724-1.392,0.724
		c-0.337,0-0.675-0.1-0.972-0.305c-0.766-0.539-0.951-1.6-0.417-2.365c2.824-4.027,3.003-9.197,3.003-9.252
		c0.026-0.921,0.781-1.647,1.697-1.647c0.016,0,0.029,0,0.048,0.003C89.845,56.266,90.584,57.042,90.56,57.979z"/>
	<radialGradient id="SVGID_17_" cx="93.8179" cy="7.4648" r="86.2474" gradientUnits="userSpaceOnUse">
		<stop  offset="0" style="stop-color:#0090E3"/>
		<stop  offset="1" style="stop-color:#1F2B60"/>
	</radialGradient>
	<path fill="url(#SVGID_17_)" d="M84.457,58.222c-0.047,0.283-1.207,7-3.337,10.461c-0.319,0.524-0.876,0.811-1.445,0.811
		c-0.302,0-0.612-0.082-0.887-0.252c-0.8-0.487-1.049-1.534-0.555-2.335c1.478-2.407,2.582-7.497,2.88-9.257
		c0.159-0.922,1.031-1.542,1.958-1.386C83.992,56.42,84.613,57.299,84.457,58.222z"/>
	<radialGradient id="SVGID_18_" cx="93.79" cy="7.7427" r="85.5888" gradientUnits="userSpaceOnUse">
		<stop  offset="0" style="stop-color:#0090E3"/>
		<stop  offset="1" style="stop-color:#1F2B60"/>
	</radialGradient>
	<path fill="url(#SVGID_18_)" d="M102.293,39.969c0.152,0.104,0.313,0.202,0.477,0.289
		C102.722,40.204,102.601,40.109,102.293,39.969z"/>
	<radialGradient id="SVGID_19_" cx="93.8179" cy="7.4712" r="86.2355" gradientUnits="userSpaceOnUse">
		<stop  offset="0" style="stop-color:#0090E3"/>
		<stop  offset="1" style="stop-color:#1F2B60"/>
	</radialGradient>
	<path fill="url(#SVGID_19_)" d="M107.151,26.36l0.782-1.871c0.358-0.866-0.052-1.855-0.918-2.219
		c-0.86-0.36-1.855,0.052-2.213,0.918l-1.361,3.266c-4.007,0.938-7,4.547-7,8.835c0,5.005,4.072,9.075,9.075,9.075
		c5.006,0,9.078-4.07,9.078-9.075C114.593,30.845,111.38,27.134,107.151,26.36z M111.328,33.2c-0.029,0.156-0.117,0.361-0.342,0.542
		c-0.067,0.055-0.146,0.104-0.24,0.153c-0.23,0.112-0.461,0.168-0.704,0.168c-0.453,0-0.891-0.202-1.265-0.59
		c-0.696-0.726-1.55-1.139-2.61-1.258c-0.109-0.017-0.223-0.022-0.327-0.022c-0.646,0-0.857,0.258-0.961,0.484
		c-0.068,0.134-0.186,0.381,0.587,0.9c0.335,0.226,0.678,0.45,1.029,0.671c0.566,0.365,1.156,0.741,1.713,1.144
		c1.713,1.233,1.722,2.51,1.427,3.368c-0.163,0.369-0.354,0.692-0.576,0.965c-0.69,0.869-1.675,1.289-2.987,1.289
		c-0.086,0-0.17,0-0.258-0.001h-0.075c-0.082,0-0.129,0.001-0.157,0.006c-0.029,0.15-0.068,0.254-0.095,0.34l-0.029,0.076
		c-0.18,0.535-0.601,0.843-1.159,0.843c-0.186,0-0.39-0.036-0.603-0.105c-0.628-0.203-0.888-0.544-0.995-0.794
		c-0.117-0.285-0.104-0.607,0.042-0.899c0.054-0.107,0.059-0.164,0.054-0.177c-0.003-0.007-0.009-0.021-0.029-0.046
		c-0.048-0.054-0.168-0.149-0.477-0.289l-0.02-0.012c-0.709-0.318-1.265-0.725-1.65-1.217c-0.398-0.519-0.398-0.927-0.335-1.181
		c0.004-0.006,0.004-0.019,0.007-0.025c0.074-0.224,0.258-0.519,0.736-0.698c0.19-0.074,0.381-0.114,0.566-0.114
		c0.493,0,0.943,0.246,1.39,0.752c0.569,0.649,1.455,1.024,2.628,1.12c0.054,0.004,0.104,0.004,0.159,0.004
		c0.455,0,0.748-0.178,0.998-0.607c0.106-0.184,0.283-0.483-0.406-0.95c-0.383-0.25-0.768-0.5-1.158-0.749
		c-0.403-0.25-0.811-0.51-1.203-0.778c-1.099-0.743-2.495-1.922-1.921-3.628c0.326-0.964,1.178-2.107,3.388-2.107
		c0.113,0,0.226,0,0.344,0.011h0.079c0.082,0,0.12-0.011,0.143-0.013c0,0,0.008-0.027,0.022-0.075
		c0.007-0.02,0.013-0.042,0.02-0.063c0.016-0.047,0.032-0.102,0.042-0.153c0.102-0.406,0.294-1.165,1.203-1.165
		c0.197,0,0.413,0.038,0.653,0.112c0.505,0.153,0.832,0.387,0.988,0.705c0.213,0.438,0.045,0.876-0.072,1.194
		c-0.022,0.061-0.048,0.126-0.068,0.186c-0.002,0.015-0.009,0.03-0.009,0.038c0.023,0.021,0.077,0.06,0.184,0.106
		c0.789,0.367,1.461,0.866,1.985,1.489C111.36,32.6,111.375,32.966,111.328,33.2z"/>
</g>
</svg>
